#VRML V2.0 utf8
# 3D model generated by easyeda2kicad.py (https://github.com/uPesy/easyeda2kicad.py)

Shape{
    appearance Appearance {
        material  Material 	{
            diffuseColor 0.20784313725490197 0.20784313725490197 0.20784313725490197
            specularColor 0.01568627450980392 0.01568627450980392 0.01568627450980392
            ambientIntensity 0.298
            transparency 0.0
            shininess 0.5
        }
    }
    geometry IndexedFaceSet {
        ccw TRUE
        solid FALSE
        coord DEF co Coordinate {
            point [
                0.0674 0.0264 0.0, 0.0752 0.0255 0.0, 0.0504 -0.0328 0.0, 0.0413 -0.0452 0.0, 0.049 -0.0406 0.0, 0.0574 -0.0441 0.0, 0.088 -0.042 0.0, 0.1143 -0.0447 0.0, 0.0803 -0.0447 0.0, 0.0753 -0.0452 0.0, 0.0578 0.0251 0.0, 0.049 -0.032 0.0, 0.049 0.0213 0.0, 0.0413 0.7185 0.0, 0.049 0.0319 0.0, 0.0811 0.0234 0.0, 0.0865 0.0197 0.0, 0.0913 0.0145 0.0, 0.097 -0.0062 0.0, 0.0962 -0.0147 0.0, 0.094 -0.0215 0.0, 0.0765 -0.0362 0.0, 0.0692 -0.037 0.0, 0.0823 -0.0341 0.0, 0.0871 -0.0308 0.0, 0.0908 -0.0269 0.0, 0.0587 -0.0359 0.0, 0.1034 0.0133 0.0, 0.0988 0.0207 0.0, 0.144 0.034 0.0, 0.1546 0.034 0.0, 1.0925 0.7185 0.0, 0.1546 -0.0447 0.0, 1.1231 0.7145 0.0, 0.0945 0.0084 0.0, 0.0966 -0.0 0.0, 1.1516 0.7027 0.0, 1.176 0.6839 0.0, 1.1948 0.6594 0.0, 0.0943 -0.038 0.0, 0.1002 -0.0318 0.0, 0.1143 -0.0361 0.0, 0.1044 -0.0243 0.0, 0.144 -0.0361 0.0, 0.0917 0.0275 0.0, 0.0842 0.0318 0.0, 0.0754 0.0344 0.0, 1.2066 0.631 0.0, 1.2106 0.6004 0.0, 1.2106 -0.0452 0.0, 0.1068 -0.0159 0.0, 0.1075 -0.0068 0.0, 0.1064 0.0044 0.0, 0.0675 0.035 0.0, 0.0581 0.0343 0.0, 0.0706 -0.0457 0.0, 1.2106 -0.6004 0.0, 1.2066 -0.631 0.0, 1.1948 -0.6594 0.0, 1.176 -0.6839 0.0, 0.0653 -0.0452 0.0, 0.0685 -0.0456 0.0, 0.0413 -0.7185 0.0, 1.0925 -0.7185 0.0, 1.1231 -0.7145 0.0, 1.1516 -0.7027 0.0, -0.0931 -0.0447 0.0, -0.0835 -0.0231 0.0, -0.0789 -0.0302 0.0, -0.0086 -0.0447 0.0, 0.0336 -0.0447 0.0, 0.0336 0.034 0.0, -0.0067 0.034 0.0, -1.0925 0.7185 0.0, -0.0725 -0.0364 0.0, -0.0642 -0.0411 0.0, -0.0552 -0.0439 0.0, -0.1229 0.034 0.0, -0.1335 0.034 0.0, 0.023 0.0254 0.0, 0.023 -0.0005 0.0, -0.0067 0.0254 0.0, -0.0048 -0.0005 0.0, -0.024 0.034 0.0, -0.0048 -0.0092 0.0, 0.023 -0.0092 0.0, 0.023 -0.0361 0.0, -0.0086 -0.0361 0.0, -0.024 -0.0447 0.0, -0.0454 -0.0447 0.0, -0.0576 0.0328 0.0, -0.0668 0.0296 0.0, -0.0754 0.0238 0.0, -0.0755 0.0238 0.0, -0.081 0.0176 0.0, -0.0847 0.0108 0.0, -0.0462 0.034 0.0, -0.1527 -0.0447 0.0, -0.1642 -0.0447 0.0, -1.2106 -0.0452 0.0, -1.2106 0.6004 0.0, -0.0868 0.0031 0.0, -0.0874 -0.0043 0.0, -0.0863 -0.0149 0.0, -1.2066 0.631 0.0, -1.1948 0.6594 0.0, -1.176 0.6839 0.0, -1.1516 0.7027 0.0, -1.1231 0.7145 0.0, -0.1447 -0.0226 0.0, -0.1122 -0.0226 0.0, -0.1047 -0.0447 0.0, -1.0925 -0.7185 0.0, -1.2106 -0.6004 0.0, -1.2066 -0.631 0.0, -1.1231 -0.7145 0.0, -1.1516 -0.7027 0.0, -1.176 -0.6839 0.0, -1.1948 -0.6594 0.0, 1.0925 0.7185 0.4724, 1.1231 0.7145 0.4724, 1.1516 0.7027 0.4724, 1.176 0.6839 0.4724, 1.1948 0.6594 0.4724, 1.2066 0.631 0.4724, 1.2106 0.6004 0.4724, 1.2106 -0.6004 0.4724, 1.2106 -0.1181 0.1181, 1.2106 0.1181 0.1181, 1.2106 0.1181 0.1969, 1.2106 -0.1181 0.1969, 1.2066 -0.631 0.4724, 1.1948 -0.6594 0.4724, 1.176 -0.6839 0.4724, 1.1516 -0.7027 0.4724, 1.1231 -0.7145 0.4724, 1.0925 -0.7185 0.4724, -1.0925 -0.7185 0.4724, -1.1231 -0.7145 0.4724, -1.1516 -0.7027 0.4724, -1.176 -0.6839 0.4724, -1.1948 -0.6594 0.4724, -1.2066 -0.631 0.4724, -1.2106 -0.6004 0.4724, -1.2106 0.6004 0.4724, -1.2106 0.1181 0.1181, -1.2106 -0.1181 0.1181, -1.2106 -0.1181 0.1969, -1.2106 0.1181 0.1969, -1.2066 0.631 0.4724, -1.1948 0.6594 0.4724, -1.176 0.6839 0.4724, -1.1516 0.7027 0.4724, -1.1231 0.7145 0.4724, -1.0925 0.7185 0.4724
            ]
        }
        coordIndex [
            0,1,2,-1,3,4,5,-1,6,7,8,-1,8,7,9,-1,0,2,10,-1,10,2,11,-1,10,11,12,-1,12,11,13,-1,12,13,14,-1,1,15,2,-1,2,15,16,-1,2,16,17,-1,18,19,2,-1,2,19,20,-1,21,22,23,-1,23,22,24,-1,20,25,2,-1,2,25,24,-1,2,24,26,-1,26,24,22,-1,27,28,29,-1,29,28,13,-1,29,13,30,-1,30,13,31,-1,30,31,32,-1,32,31,33,-1,17,34,2,-1,2,34,35,-1,2,35,18,-1,33,36,32,-1,32,36,37,-1,32,37,38,-1,6,39,7,-1,7,39,40,-1,7,40,41,-1,41,40,42,-1,41,42,43,-1,28,44,13,-1,13,44,45,-1,13,45,46,-1,38,47,32,-1,32,47,48,-1,32,48,49,-1,42,50,43,-1,43,50,51,-1,43,51,29,-1,29,51,52,-1,29,52,27,-1,46,53,13,-1,13,53,54,-1,13,54,14,-1,7,32,9,-1,9,32,49,-1,9,49,55,-1,55,49,56,-1,57,58,59,-1,60,61,62,-1,62,61,55,-1,62,55,63,-1,63,55,56,-1,63,56,64,-1,57,59,56,-1,56,59,65,-1,56,65,64,-1,66,67,68,-1,69,70,3,-1,3,70,71,-1,72,73,71,-1,71,73,13,-1,71,13,3,-1,3,13,11,-1,3,11,4,-1,68,74,66,-1,66,74,75,-1,66,75,76,-1,77,78,73,-1,79,80,81,-1,81,80,82,-1,81,82,83,-1,83,82,84,-1,85,86,84,-1,84,86,87,-1,84,87,83,-1,83,87,69,-1,83,69,88,-1,88,69,3,-1,88,3,89,-1,90,91,77,-1,77,91,92,-1,92,93,77,-1,77,93,94,-1,77,94,95,-1,90,77,96,-1,96,77,73,-1,96,73,83,-1,83,73,72,-1,83,72,81,-1,97,3,98,-1,98,3,99,-1,98,99,78,-1,78,99,100,-1,95,101,77,-1,77,101,102,-1,77,102,66,-1,66,102,103,-1,66,103,67,-1,100,104,78,-1,78,104,105,-1,78,105,106,-1,106,107,78,-1,78,107,108,-1,78,108,73,-1,109,110,97,-1,97,110,111,-1,97,111,3,-1,3,111,66,-1,3,66,89,-1,89,66,76,-1,5,60,3,-1,3,60,62,-1,3,62,99,-1,99,62,112,-1,99,112,113,-1,113,112,114,-1,115,116,117,-1,115,117,112,-1,112,117,118,-1,112,118,114,-1,31,119,120,-1,31,120,33,-1,33,120,121,-1,33,121,36,-1,36,121,122,-1,36,122,37,-1,37,122,123,-1,37,123,38,-1,38,123,124,-1,38,124,47,-1,47,124,125,-1,47,125,48,-1,126,56,127,-1,127,56,49,-1,127,49,128,-1,128,49,48,-1,128,48,129,-1,129,48,125,-1,129,125,130,-1,130,125,126,-1,130,126,127,-1,56,126,131,-1,56,131,57,-1,57,131,132,-1,57,132,58,-1,58,132,133,-1,58,133,59,-1,59,133,134,-1,59,134,65,-1,65,134,135,-1,65,135,64,-1,64,135,136,-1,64,136,63,-1,137,112,136,-1,136,112,62,-1,136,62,63,-1,112,137,138,-1,112,138,115,-1,115,138,139,-1,115,139,116,-1,116,139,140,-1,116,140,117,-1,117,140,141,-1,117,141,118,-1,118,141,142,-1,118,142,114,-1,114,142,143,-1,114,143,113,-1,144,100,145,-1,145,100,99,-1,145,99,146,-1,146,99,113,-1,146,113,147,-1,147,113,143,-1,147,143,148,-1,148,143,144,-1,148,144,145,-1,100,144,149,-1,100,149,104,-1,104,149,150,-1,104,150,105,-1,105,150,151,-1,105,151,106,-1,106,151,152,-1,106,152,107,-1,107,152,153,-1,107,153,108,-1,108,153,154,-1,108,154,73,-1,73,154,13,-1,13,154,119,-1,13,119,31,-1,138,137,143,-1,143,137,144,-1,119,125,124,-1,125,119,144,-1,144,119,154,-1,144,154,149,-1,153,152,151,-1,142,141,140,-1,132,131,133,-1,133,131,126,-1,133,126,134,-1,124,123,119,-1,119,123,122,-1,119,122,120,-1,120,122,121,-1,144,137,125,-1,125,137,136,-1,125,136,126,-1,126,136,135,-1,126,135,134,-1,153,151,154,-1,154,151,150,-1,154,150,149,-1,142,140,143,-1,143,140,139,-1,143,139,138,-1,
        ]
    }
}
Shape{
    appearance Appearance {
        material  Material 	{
            diffuseColor 0.6666666666666666 0.6666666666666666 0.6666666666666666
            specularColor 0.4666666666666667 0.4666666666666667 0.4666666666666667
            ambientIntensity 0.6667
            transparency 0.0
            shininess 0.5
        }
    }
    geometry IndexedFaceSet {
        ccw TRUE
        solid FALSE
        coord DEF co Coordinate {
            point [
                -1.5748 0.1181 0.0, -1.4482 0.1181 0.0, -1.5748 -0.1181 0.0, -1.4482 -0.1181 0.0, -1.5748 0.1181 0.0787, -1.5748 -0.1181 0.0787, -1.4482 0.1181 0.0787, -1.4482 -0.1181 0.0787, -1.4444 0.1181 0.0791, -1.4444 -0.1181 0.0791, -1.4407 0.1181 0.0802, -1.4407 -0.1181 0.0802, -1.4373 0.1181 0.0821, -1.4373 -0.1181 0.0821, -1.4343 0.1181 0.0845, -1.4343 -0.1181 0.0845, -1.3508 0.1181 0.168, -1.3508 -0.1181 0.168, -1.3304 -0.1181 0.1837, -1.3304 0.1181 0.1837, -1.3067 -0.1181 0.1935, -1.3067 0.1181 0.1935, -1.2812 -0.1181 0.1969, -1.2812 0.1181 0.1969, -1.2106 0.1181 0.1969, -1.2106 -0.1181 0.1969, -1.2812 0.1181 0.1181, -1.2106 0.1181 0.1181, -1.2812 -0.1181 0.1181, -1.2106 -0.1181 0.1181, -1.2863 0.1181 0.1174, -1.2863 -0.1181 0.1174, -1.2911 0.1181 0.1155, -1.2911 -0.1181 0.1155, -1.2951 0.1181 0.1123, -1.2951 -0.1181 0.1123, -1.3787 0.1181 0.0288, -1.3787 -0.1181 0.0288, -1.3936 -0.1181 0.0166, -1.3936 0.1181 0.0166, -1.4106 -0.1181 0.0075, -1.4106 0.1181 0.0075, -1.429 -0.1181 0.0019, -1.429 0.1181 0.0019, 1.4482 0.1181 0.0, 1.5748 0.1181 0.0, 1.4482 -0.1181 0.0, 1.5748 -0.1181 0.0, 1.4228 -0.1181 0.0034, 1.4228 0.1181 0.0034, 1.399 -0.1181 0.0132, 1.399 0.1181 0.0132, 1.3787 -0.1181 0.0288, 1.3787 0.1181 0.0288, 1.2951 0.1181 0.1123, 1.2951 -0.1181 0.1123, 1.2911 0.1181 0.1155, 1.2911 -0.1181 0.1155, 1.2863 0.1181 0.1174, 1.2863 -0.1181 0.1174, 1.2812 0.1181 0.1181, 1.2812 -0.1181 0.1181, 1.2106 0.1181 0.1181, 1.2106 -0.1181 0.1181, 1.2812 0.1181 0.1969, 1.2106 0.1181 0.1969, 1.2812 -0.1181 0.1969, 1.2106 -0.1181 0.1969, 1.3067 -0.1181 0.1935, 1.3067 0.1181 0.1935, 1.3304 -0.1181 0.1837, 1.3304 0.1181 0.1837, 1.3508 -0.1181 0.168, 1.3508 0.1181 0.168, 1.4343 0.1181 0.0845, 1.4343 -0.1181 0.0845, 1.4373 0.1181 0.0821, 1.4373 -0.1181 0.0821, 1.4407 0.1181 0.0802, 1.4407 -0.1181 0.0802, 1.4444 0.1181 0.0791, 1.4444 -0.1181 0.0791, 1.4482 0.1181 0.0787, 1.4482 -0.1181 0.0787, 1.5748 0.1181 0.0787, 1.5748 -0.1181 0.0787
            ]
        }
        coordIndex [
            0,1,2,-1,2,1,3,-1,4,0,5,-1,5,0,2,-1,6,4,7,-1,7,4,5,-1,6,7,8,-1,8,7,9,-1,8,9,10,-1,10,9,11,-1,10,11,12,-1,12,11,13,-1,12,13,14,-1,14,13,15,-1,16,14,17,-1,17,14,15,-1,16,17,18,-1,16,18,19,-1,19,18,20,-1,19,20,21,-1,21,20,22,-1,21,22,23,-1,24,23,25,-1,25,23,22,-1,26,27,28,-1,28,27,29,-1,26,28,30,-1,30,28,31,-1,30,31,32,-1,32,31,33,-1,32,33,34,-1,34,33,35,-1,36,34,37,-1,37,34,35,-1,36,37,38,-1,36,38,39,-1,39,38,40,-1,39,40,41,-1,41,40,42,-1,41,42,43,-1,43,42,3,-1,43,3,1,-1,24,27,23,-1,23,27,26,-1,23,26,21,-1,21,26,30,-1,21,30,19,-1,19,30,32,-1,19,32,16,-1,16,32,34,-1,16,34,14,-1,14,34,36,-1,14,36,12,-1,12,36,39,-1,12,39,10,-1,10,39,41,-1,10,41,8,-1,8,41,43,-1,8,43,6,-1,6,43,1,-1,6,1,4,-1,4,1,0,-1,5,2,7,-1,7,2,3,-1,7,3,9,-1,9,3,42,-1,9,42,11,-1,11,42,40,-1,11,40,13,-1,13,40,38,-1,13,38,15,-1,15,38,37,-1,15,37,17,-1,17,37,35,-1,17,35,18,-1,18,35,33,-1,18,33,20,-1,20,33,31,-1,20,31,22,-1,22,31,28,-1,22,28,25,-1,25,28,29,-1,44,45,46,-1,46,45,47,-1,44,46,48,-1,44,48,49,-1,49,48,50,-1,49,50,51,-1,51,50,52,-1,51,52,53,-1,54,53,55,-1,55,53,52,-1,54,55,56,-1,56,55,57,-1,56,57,58,-1,58,57,59,-1,58,59,60,-1,60,59,61,-1,62,60,63,-1,63,60,61,-1,64,65,66,-1,66,65,67,-1,64,66,68,-1,64,68,69,-1,69,68,70,-1,69,70,71,-1,71,70,72,-1,71,72,73,-1,74,73,75,-1,75,73,72,-1,74,75,76,-1,76,75,77,-1,76,77,78,-1,78,77,79,-1,78,79,80,-1,80,79,81,-1,80,81,82,-1,82,81,83,-1,84,82,85,-1,85,82,83,-1,45,84,47,-1,47,84,85,-1,62,65,60,-1,60,65,64,-1,60,64,58,-1,58,64,69,-1,58,69,56,-1,56,69,71,-1,56,71,54,-1,54,71,73,-1,54,73,53,-1,53,73,74,-1,53,74,51,-1,51,74,76,-1,51,76,49,-1,84,45,82,-1,82,45,44,-1,82,44,80,-1,80,44,49,-1,80,49,78,-1,78,49,76,-1,47,85,46,-1,46,85,83,-1,46,83,48,-1,67,63,66,-1,66,63,61,-1,66,61,68,-1,68,61,59,-1,68,59,70,-1,70,59,57,-1,70,57,72,-1,72,57,55,-1,72,55,75,-1,75,55,52,-1,75,52,77,-1,77,52,50,-1,77,50,79,-1,79,50,48,-1,79,48,81,-1,81,48,83,-1,
        ]
    }
}
Shape{
    appearance Appearance {
        material  Material 	{
            diffuseColor 1.0 1.0 1.0
            specularColor 0.8784313725490196 0.8784313725490196 0.8784313725490196
            ambientIntensity 1.0
            transparency 0.0
            shininess 0.5
        }
    }
    geometry IndexedFaceSet {
        ccw TRUE
        solid FALSE
        coord DEF co Coordinate {
            point [
                -0.1335 0.034 0.0079, -0.1642 -0.0447 0.0079, -0.1335 0.034 0.0, -0.1642 -0.0447 0.0, -0.1527 -0.0447 0.0079, -0.1527 -0.0447 0.0, -0.1447 -0.0226 0.0079, -0.1447 -0.0226 0.0, -0.1122 -0.0226 0.0079, -0.1122 -0.0226 0.0, -0.1047 -0.0447 0.0079, -0.1047 -0.0447 0.0, -0.0931 -0.0447 0.0079, -0.0931 -0.0447 0.0, -0.1229 0.034 0.0079, -0.1229 0.034 0.0, -0.1148 -0.014 0.0079, -0.1412 -0.014 0.0079, -0.1266 0.0189 0.0079, -0.1273 0.0216 0.0079, -0.1278 0.0244 0.0079, -0.1281 0.0244 0.0079, -0.1286 0.0217 0.0079, -0.1293 0.0189 0.0079, -0.1148 -0.014 0.0, -0.1412 -0.014 0.0, -0.1266 0.0189 0.0, -0.1273 0.0216 0.0, -0.1278 0.0244 0.0, -0.1281 0.0244 0.0, -0.1286 0.0217 0.0, -0.1293 0.0189 0.0, -0.0454 -0.0447 0.0079, -0.024 -0.0447 0.0079, -0.0454 -0.0447 0.0, -0.024 -0.0447 0.0, -0.024 0.034 0.0079, -0.024 0.034 0.0, -0.0462 0.034 0.0079, -0.0462 0.034 0.0, -0.0874 -0.0043 0.0079, -0.0874 -0.0043 0.0, -0.0868 0.0031 0.0, -0.0868 0.0031 0.0079, -0.0847 0.0108 0.0, -0.0847 0.0108 0.0079, -0.081 0.0176 0.0, -0.081 0.0176 0.0079, -0.0755 0.0238 0.0, -0.0755 0.0238 0.0079, -0.0754 0.0238 0.0, -0.0754 0.0238 0.0079, -0.0668 0.0296 0.0, -0.0668 0.0296 0.0079, -0.0576 0.0328 0.0, -0.0576 0.0328 0.0079, -0.0552 -0.0439 0.0, -0.0552 -0.0439 0.0079, -0.0642 -0.0411 0.0, -0.0642 -0.0411 0.0079, -0.0725 -0.0364 0.0, -0.0725 -0.0364 0.0079, -0.0789 -0.0302 0.0, -0.0789 -0.0302 0.0079, -0.0835 -0.0231 0.0, -0.0835 -0.0231 0.0079, -0.0863 -0.0149 0.0, -0.0863 -0.0149 0.0079, -0.0716 0.0144 0.0079, -0.0678 0.0184 0.0079, -0.062 0.0221 0.0079, -0.0555 0.0244 0.0079, -0.0462 0.0254 0.0079, -0.0346 0.0254 0.0079, -0.0346 -0.0361 0.0079, -0.0457 -0.0361 0.0079, -0.0541 -0.0353 0.0079, -0.0607 -0.0332 0.0079, -0.066 -0.03 0.0079, -0.0705 -0.0257 0.0079, -0.0738 -0.0202 0.0079, -0.0761 -0.0128 0.0079, -0.0768 -0.0046 0.0079, -0.0762 0.0033 0.0079, -0.0743 0.0095 0.0079, -0.0462 0.0254 0.0, -0.0346 0.0254 0.0, -0.0555 0.0244 0.0, -0.062 0.0221 0.0, -0.0678 0.0184 0.0, -0.0716 0.0144 0.0, -0.0743 0.0095 0.0, -0.0762 0.0033 0.0, -0.0768 -0.0046 0.0, -0.0761 -0.0128 0.0, -0.0738 -0.0202 0.0, -0.0705 -0.0257 0.0, -0.066 -0.03 0.0, -0.0607 -0.0332 0.0, -0.0541 -0.0353 0.0, -0.0457 -0.0361 0.0, -0.0346 -0.0361 0.0, -0.0086 -0.0361 0.0079, -0.0086 -0.0447 0.0079, -0.0086 -0.0361 0.0, -0.0086 -0.0447 0.0, 0.0336 -0.0447 0.0079, 0.0336 -0.0447 0.0, 0.0336 0.034 0.0079, 0.0336 0.034 0.0, -0.0067 0.034 0.0079, -0.0067 0.034 0.0, -0.0067 0.0254 0.0079, -0.0067 0.0254 0.0, 0.023 0.0254 0.0079, 0.023 0.0254 0.0, 0.023 -0.0005 0.0079, 0.023 -0.0005 0.0, -0.0048 -0.0005 0.0079, -0.0048 -0.0005 0.0, -0.0048 -0.0092 0.0079, -0.0048 -0.0092 0.0, 0.023 -0.0092 0.0079, 0.023 -0.0092 0.0, 0.023 -0.0361 0.0079, 0.023 -0.0361 0.0, 0.049 -0.032 0.0079, 0.049 -0.0406 0.0079, 0.049 -0.032 0.0, 0.049 -0.0406 0.0, 0.0574 -0.0441 0.0079, 0.0706 -0.0457 0.0079, 0.0706 -0.0457 0.0, 0.0685 -0.0456 0.0, 0.0685 -0.0456 0.0079, 0.0653 -0.0452 0.0, 0.0574 -0.0441 0.0, 0.1075 -0.0068 0.0079, 0.1075 -0.0068 0.0, 0.1068 -0.0159 0.0, 0.1068 -0.0159 0.0079, 0.1044 -0.0243 0.0, 0.1044 -0.0243 0.0079, 0.1002 -0.0318 0.0, 0.1002 -0.0318 0.0079, 0.0943 -0.038 0.0, 0.0943 -0.038 0.0079, 0.088 -0.042 0.0, 0.088 -0.042 0.0079, 0.0803 -0.0447 0.0, 0.0803 -0.0447 0.0079, 0.0753 -0.0452 0.0, 0.0675 0.035 0.0079, 0.0675 0.035 0.0, 0.0754 0.0344 0.0, 0.0754 0.0344 0.0079, 0.0842 0.0318 0.0, 0.0842 0.0318 0.0079, 0.0917 0.0275 0.0, 0.0917 0.0275 0.0079, 0.0988 0.0207 0.0, 0.0988 0.0207 0.0079, 0.1034 0.0133 0.0, 0.1034 0.0133 0.0079, 0.1064 0.0044 0.0, 0.1064 0.0044 0.0079, 0.049 0.0319 0.0079, 0.049 0.0319 0.0, 0.0581 0.0343 0.0, 0.0581 0.0343 0.0079, 0.049 0.0213 0.0079, 0.049 0.0213 0.0, 0.0674 0.0264 0.0079, 0.0674 0.0264 0.0, 0.0578 0.0251 0.0, 0.0578 0.0251 0.0079, 0.097 -0.0062 0.0079, 0.097 -0.0062 0.0, 0.0966 -0.0 0.0, 0.0966 -0.0 0.0079, 0.0945 0.0084 0.0, 0.0945 0.0084 0.0079, 0.0913 0.0145 0.0, 0.0913 0.0145 0.0079, 0.0865 0.0197 0.0, 0.0865 0.0197 0.0079, 0.0811 0.0234 0.0, 0.0811 0.0234 0.0079, 0.0752 0.0255 0.0, 0.0752 0.0255 0.0079, 0.0692 -0.037 0.0079, 0.0692 -0.037 0.0, 0.0765 -0.0362 0.0, 0.0765 -0.0362 0.0079, 0.0823 -0.0341 0.0, 0.0823 -0.0341 0.0079, 0.0871 -0.0308 0.0, 0.0871 -0.0308 0.0079, 0.0908 -0.0269 0.0, 0.0908 -0.0269 0.0079, 0.094 -0.0215 0.0, 0.094 -0.0215 0.0079, 0.0962 -0.0147 0.0, 0.0962 -0.0147 0.0079, 0.0504 -0.0328 0.0, 0.0504 -0.0328 0.0079, 0.0587 -0.0359 0.0, 0.0587 -0.0359 0.0079, 0.1143 -0.0361 0.0079, 0.1143 -0.0447 0.0079, 0.1143 -0.0361 0.0, 0.1143 -0.0447 0.0, 0.1546 -0.0447 0.0079, 0.1546 -0.0447 0.0, 0.1546 0.034 0.0079, 0.1546 0.034 0.0, 0.144 0.034 0.0079, 0.144 0.034 0.0, 0.144 -0.0361 0.0079, 0.144 -0.0361 0.0
            ]
        }
        coordIndex [
            0,1,2,-1,2,1,3,-1,1,4,3,-1,3,4,5,-1,4,6,5,-1,5,6,7,-1,6,8,7,-1,7,8,9,-1,8,10,9,-1,9,10,11,-1,10,12,11,-1,11,12,13,-1,12,14,13,-1,13,14,15,-1,14,0,15,-1,15,0,2,-1,16,8,17,-1,17,8,6,-1,18,14,16,-1,16,14,12,-1,16,12,8,-1,8,12,10,-1,18,19,14,-1,14,19,20,-1,14,20,0,-1,0,20,21,-1,0,21,22,-1,22,23,0,-1,0,23,17,-1,0,17,1,-1,1,17,6,-1,1,6,4,-1,16,17,24,-1,24,17,25,-1,18,16,26,-1,26,16,24,-1,18,26,27,-1,18,27,19,-1,19,27,28,-1,19,28,20,-1,21,20,29,-1,29,20,28,-1,21,29,30,-1,21,30,22,-1,22,30,31,-1,22,31,23,-1,17,23,25,-1,25,23,31,-1,32,33,34,-1,34,33,35,-1,33,36,35,-1,35,36,37,-1,36,38,37,-1,37,38,39,-1,40,41,42,-1,40,42,43,-1,43,42,44,-1,43,44,45,-1,45,44,46,-1,45,46,47,-1,47,46,48,-1,47,48,49,-1,49,48,50,-1,49,50,51,-1,51,50,52,-1,51,52,53,-1,53,52,54,-1,53,54,55,-1,55,54,39,-1,55,39,38,-1,32,34,56,-1,32,56,57,-1,57,56,58,-1,57,58,59,-1,59,58,60,-1,59,60,61,-1,61,60,62,-1,61,62,63,-1,63,62,64,-1,63,64,65,-1,65,64,66,-1,65,66,67,-1,67,66,41,-1,67,41,40,-1,45,47,68,-1,68,47,49,-1,68,49,69,-1,69,49,51,-1,69,51,70,-1,70,51,53,-1,70,53,71,-1,71,53,55,-1,71,55,72,-1,72,55,38,-1,72,38,73,-1,73,38,36,-1,73,36,74,-1,74,36,33,-1,74,33,75,-1,75,33,32,-1,75,32,76,-1,76,32,57,-1,76,57,77,-1,77,57,59,-1,77,59,78,-1,78,59,61,-1,78,61,79,-1,79,61,63,-1,79,63,80,-1,80,63,65,-1,80,65,81,-1,81,65,67,-1,81,67,82,-1,82,67,40,-1,82,40,83,-1,83,40,43,-1,83,43,84,-1,84,43,45,-1,84,45,68,-1,72,73,85,-1,85,73,86,-1,72,85,87,-1,72,87,71,-1,71,87,88,-1,71,88,70,-1,70,88,89,-1,70,89,69,-1,69,89,90,-1,69,90,68,-1,68,90,91,-1,68,91,84,-1,84,91,92,-1,84,92,83,-1,83,92,93,-1,83,93,82,-1,82,93,94,-1,82,94,81,-1,81,94,95,-1,81,95,80,-1,80,95,96,-1,80,96,79,-1,79,96,97,-1,79,97,78,-1,78,97,98,-1,78,98,77,-1,77,98,99,-1,77,99,76,-1,76,99,100,-1,76,100,75,-1,74,75,101,-1,101,75,100,-1,73,74,86,-1,86,74,101,-1,102,103,104,-1,104,103,105,-1,103,106,105,-1,105,106,107,-1,106,108,107,-1,107,108,109,-1,108,110,109,-1,109,110,111,-1,110,112,111,-1,111,112,113,-1,112,114,113,-1,113,114,115,-1,114,116,115,-1,115,116,117,-1,116,118,117,-1,117,118,119,-1,118,120,119,-1,119,120,121,-1,120,122,121,-1,121,122,123,-1,122,124,123,-1,123,124,125,-1,124,102,125,-1,125,102,104,-1,106,103,102,-1,102,124,106,-1,106,124,122,-1,106,122,108,-1,112,110,114,-1,114,110,108,-1,114,108,116,-1,116,108,122,-1,116,122,118,-1,118,122,120,-1,126,127,128,-1,128,127,129,-1,129,127,130,-1,131,132,133,-1,131,133,134,-1,134,133,135,-1,134,135,130,-1,130,135,136,-1,130,136,129,-1,137,138,139,-1,137,139,140,-1,140,139,141,-1,140,141,142,-1,142,141,143,-1,142,143,144,-1,144,143,145,-1,144,145,146,-1,146,145,147,-1,146,147,148,-1,148,147,149,-1,148,149,150,-1,150,149,131,-1,131,149,151,-1,131,151,132,-1,152,153,154,-1,152,154,155,-1,155,154,156,-1,155,156,157,-1,157,156,158,-1,157,158,159,-1,159,158,160,-1,159,160,161,-1,161,160,162,-1,161,162,163,-1,163,162,164,-1,163,164,165,-1,165,164,138,-1,165,138,137,-1,166,167,168,-1,166,168,169,-1,169,168,153,-1,169,153,152,-1,166,170,167,-1,167,170,171,-1,172,173,174,-1,172,174,175,-1,175,174,171,-1,175,171,170,-1,176,177,178,-1,176,178,179,-1,179,178,180,-1,179,180,181,-1,181,180,182,-1,181,182,183,-1,183,182,184,-1,183,184,185,-1,185,184,186,-1,185,186,187,-1,187,186,188,-1,187,188,189,-1,189,188,173,-1,189,173,172,-1,190,191,192,-1,190,192,193,-1,193,192,194,-1,193,194,195,-1,195,194,196,-1,195,196,197,-1,197,196,198,-1,197,198,199,-1,199,198,200,-1,199,200,201,-1,201,200,202,-1,201,202,203,-1,203,202,177,-1,203,177,176,-1,126,128,204,-1,126,204,205,-1,205,204,206,-1,205,206,207,-1,207,206,191,-1,207,191,190,-1,193,131,190,-1,190,131,134,-1,190,134,207,-1,207,134,130,-1,207,130,205,-1,205,130,127,-1,205,127,126,-1,170,166,175,-1,175,166,169,-1,175,169,172,-1,172,169,152,-1,172,152,189,-1,189,152,155,-1,189,155,187,-1,187,155,157,-1,187,157,185,-1,185,157,159,-1,185,159,183,-1,183,159,161,-1,183,161,181,-1,181,161,163,-1,181,163,179,-1,179,163,165,-1,179,165,176,-1,176,165,137,-1,176,137,203,-1,203,137,140,-1,203,140,201,-1,201,140,142,-1,201,142,199,-1,199,142,144,-1,199,144,197,-1,197,144,146,-1,197,146,195,-1,195,146,148,-1,195,148,193,-1,193,148,150,-1,193,150,131,-1,208,209,210,-1,210,209,211,-1,209,212,211,-1,211,212,213,-1,212,214,213,-1,213,214,215,-1,214,216,215,-1,215,216,217,-1,216,218,217,-1,217,218,219,-1,218,208,219,-1,219,208,210,-1,216,214,218,-1,218,214,212,-1,218,212,208,-1,208,212,209,-1,
        ]
    }
}
Shape{
    appearance Appearance {
        material  Material 	{
            diffuseColor 0.20784313725490197 0.20784313725490197 0.20784313725490197
            specularColor 0.01568627450980392 0.01568627450980392 0.01568627450980392
            ambientIntensity 0.298
            transparency 0.0
            shininess 0.5
        }
    }
    geometry IndexedFaceSet {
        ccw TRUE
        solid FALSE
        coord DEF co Coordinate {
            point [
                -0.1148 -0.014 0.0, -0.1412 -0.014 0.0, -0.1266 0.0189 0.0, -0.1293 0.0189 0.0, -0.1273 0.0216 0.0, -0.1286 0.0217 0.0, -0.1278 0.0244 0.0, -0.1281 0.0244 0.0, -0.0346 0.0254 0.0, -0.0346 -0.0361 0.0, -0.0462 0.0254 0.0, -0.0457 -0.0361 0.0, -0.0541 -0.0353 0.0, -0.0768 -0.0046 0.0, -0.0762 0.0033 0.0, -0.0743 0.0095 0.0, -0.0555 0.0244 0.0, -0.0607 -0.0332 0.0, -0.066 -0.03 0.0, -0.0705 -0.0257 0.0, -0.0738 -0.0202 0.0, -0.0761 -0.0128 0.0, -0.0716 0.0144 0.0, -0.0678 0.0184 0.0, -0.062 0.0221 0.0
            ]
        }
        coordIndex [
            0,1,2,-1,2,1,3,-1,2,3,4,-1,4,3,5,-1,4,5,6,-1,6,5,7,-1,8,9,10,-1,10,9,11,-1,10,11,12,-1,13,14,10,-1,10,14,15,-1,10,15,16,-1,12,17,10,-1,10,17,18,-1,10,18,19,-1,19,20,10,-1,10,20,21,-1,10,21,13,-1,22,23,15,-1,15,23,24,-1,15,24,16,-1,
        ]
    }
}
Shape{
    appearance Appearance {
        material  Material 	{
            diffuseColor 0.6666666666666666 0.6666666666666666 0.6666666666666666
            specularColor 0.4666666666666667 0.4666666666666667 0.4666666666666667
            ambientIntensity 0.6667
            transparency 0.0
            shininess 0.5
        }
    }
    geometry IndexedFaceSet {
        ccw TRUE
        solid FALSE
        coord DEF co Coordinate {
            point [
                -0.7649 0.4941 0.5512, -0.7239 0.5199 0.5512, -1.0925 0.7185 0.5512, 0.8465 -0.3248 0.5512, 1.2106 -0.6004 0.5512, 0.8465 0.3248 0.5512, 1.2106 0.6004 0.5512, 0.841 0.373 0.5512, -1.1948 0.6594 0.5512, -1.2066 0.631 0.5512, -0.825 0.4188 0.5512, -1.2106 0.6004 0.5512, -0.841 0.373 0.5512, -0.7992 0.4598 0.5512, 0.7992 -0.4598 0.5512, 0.7649 -0.4941 0.5512, 1.0925 -0.7185 0.5512, 0.7239 -0.5199 0.5512, -1.1231 0.7145 0.5512, -1.1516 0.7027 0.5512, -1.176 0.6839 0.5512, 0.841 -0.373 0.5512, 0.825 -0.4188 0.5512, 1.2066 -0.631 0.5512, 1.1948 -0.6594 0.5512, -1.1948 -0.6594 0.5512, -0.825 -0.4188 0.5512, -1.2066 -0.631 0.5512, -1.2106 -0.6004 0.5512, 1.1231 -0.7145 0.5512, 1.1516 -0.7027 0.5512, 1.176 -0.6839 0.5512, -0.6781 -0.5359 0.5512, -0.7239 -0.5199 0.5512, -1.0925 -0.7185 0.5512, -0.7649 -0.4941 0.5512, -1.1231 -0.7145 0.5512, -0.7992 -0.4598 0.5512, -1.1516 -0.7027 0.5512, -1.176 -0.6839 0.5512, -0.841 -0.373 0.5512, -0.8465 -0.3248 0.5512, -0.8465 0.3248 0.5512, 0.6781 -0.5359 0.5512, 0.6299 -0.5413 0.5512, -0.6299 -0.5413 0.5512, -0.6781 0.5359 0.5512, -0.6299 0.5413 0.5512, 1.0925 0.7185 0.5512, 0.6299 0.5413 0.5512, 0.6781 0.5359 0.5512, 0.825 0.4188 0.5512, 1.2066 0.631 0.5512, 1.1948 0.6594 0.5512, 0.7239 0.5199 0.5512, 0.7649 0.4941 0.5512, 1.1231 0.7145 0.5512, 0.7992 0.4598 0.5512, 1.1516 0.7027 0.5512, 1.176 0.6839 0.5512, 1.2106 -0.6004 0.4724, 1.2106 0.6004 0.4724, 1.0925 0.7185 0.4724, -1.0925 0.7185 0.4724, -1.2106 -0.6004 0.4724, -1.2106 0.6004 0.4724, 1.0925 -0.7185 0.4724, -1.0925 -0.7185 0.4724, 1.2066 -0.631 0.4724, -1.2066 -0.631 0.4724, -1.1516 -0.7027 0.4724, -1.176 -0.6839 0.4724, -1.1948 -0.6594 0.4724, 1.1948 -0.6594 0.4724, 1.176 -0.6839 0.4724, 1.1231 -0.7145 0.4724, 1.1516 -0.7027 0.4724, -1.2066 0.631 0.4724, -1.1948 0.6594 0.4724, -1.1231 0.7145 0.4724, -1.176 0.6839 0.4724, -1.1516 0.7027 0.4724, -1.1231 -0.7145 0.4724, 1.1516 0.7027 0.4724, 1.176 0.6839 0.4724, 1.1231 0.7145 0.4724, 1.1948 0.6594 0.4724, 1.2066 0.631 0.4724, -0.6741 0.3689 0.7053, -0.6685 0.3732 0.7053, -0.6299 0.3872 0.7053, -0.6438 0.3854 0.7053, -0.6611 0.3789 0.7053, -0.6568 0.3806 0.7053, -0.6461 0.3851 0.7053, -0.6783 0.3634 0.7053, -0.684 0.356 0.7053, -0.6858 0.3517 0.7053, -0.6902 0.341 0.7053, -0.6905 0.3387 0.7053, -0.6924 0.3248 0.7053, 0.6299 0.3872 0.7053, 0.6741 0.3689 0.7053, 0.6783 0.3634 0.7053, 0.6924 0.3248 0.7053, 0.6905 0.3387 0.7053, 0.684 0.356 0.7053, 0.6858 0.3517 0.7053, 0.6902 0.341 0.7053, 0.6685 0.3732 0.7053, 0.6611 0.3789 0.7053, 0.6568 0.3806 0.7053, 0.6461 0.3851 0.7053, 0.6438 0.3854 0.7053, 0.6924 -0.3248 0.7053, 0.6741 -0.3689 0.7053, 0.6685 -0.3732 0.7053, 0.6299 -0.3872 0.7053, 0.6438 -0.3854 0.7053, 0.6611 -0.3789 0.7053, 0.6568 -0.3806 0.7053, 0.6461 -0.3851 0.7053, 0.6783 -0.3634 0.7053, 0.684 -0.356 0.7053, 0.6858 -0.3517 0.7053, 0.6902 -0.341 0.7053, 0.6905 -0.3387 0.7053, -0.6299 -0.3872 0.7053, -0.684 -0.356 0.7053, -0.6858 -0.3517 0.7053, -0.6924 -0.3248 0.7053, -0.6905 -0.3387 0.7053, -0.6902 -0.341 0.7053, -0.6783 -0.3634 0.7053, -0.6741 -0.3689 0.7053, -0.6685 -0.3732 0.7053, -0.6611 -0.3789 0.7053, -0.6568 -0.3806 0.7053, -0.6461 -0.3851 0.7053, -0.6438 -0.3854 0.7053, 0.6367 -0.3248 0.7283, 0.5091 -0.1877 0.7283, 0.5013 -0.2067 0.7283, 0.5013 0.2067 0.7283, 0.5091 0.1877 0.7283, 0.6367 0.3248 0.7283, 0.5118 0.1673 0.7283, 0.5118 -0.1673 0.7283, 0.4887 -0.223 0.7283, 0.6299 -0.3316 0.7283, 0.4724 -0.2355 0.7283, 0.6317 -0.3313 0.7283, 0.6333 -0.3307 0.7283, 0.6347 -0.3296 0.7283, 0.6347 0.3296 0.7283, 0.6333 0.3307 0.7283, 0.4887 0.223 0.7283, 0.6358 -0.3282 0.7283, 0.6364 -0.3266 0.7283, -0.4535 -0.2434 0.7283, -0.4724 -0.2355 0.7283, -0.6299 -0.3316 0.7283, -0.4887 -0.223 0.7283, -0.6317 -0.3313 0.7283, -0.5013 -0.2067 0.7283, -0.6333 -0.3307 0.7283, 0.6358 0.3282 0.7283, 0.4535 0.2434 0.7283, 0.4724 0.2355 0.7283, 0.6299 0.3316 0.7283, 0.6317 0.3313 0.7283, -0.6367 -0.3248 0.7283, -0.6364 -0.3266 0.7283, -0.4724 0.2355 0.7283, -0.6299 0.3316 0.7283, -0.4887 0.223 0.7283, -0.6317 0.3313 0.7283, 0.6364 0.3266 0.7283, -0.6358 -0.3282 0.7283, -0.6347 -0.3296 0.7283, -0.5091 -0.1877 0.7283, -0.5118 -0.1673 0.7283, -0.6367 0.3248 0.7283, -0.5118 0.1673 0.7283, -0.5091 0.1877 0.7283, -0.5013 0.2067 0.7283, -0.6364 0.3266 0.7283, -0.6358 0.3282 0.7283, -0.6333 0.3307 0.7283, -0.6347 0.3296 0.7283, -0.4535 0.2434 0.7283, -0.4331 0.2461 0.7283, 0.4331 0.2461 0.7283, 0.4535 -0.2434 0.7283, 0.4331 -0.2461 0.7283, -0.4331 -0.2461 0.7283
            ]
        }
        coordIndex [
            0,1,2,-1,3,4,5,-1,5,4,6,-1,5,6,7,-1,8,9,10,-1,10,9,11,-1,10,11,12,-1,0,2,13,-1,14,15,16,-1,16,15,17,-1,2,18,13,-1,13,18,19,-1,13,19,10,-1,10,19,20,-1,10,20,8,-1,3,21,4,-1,4,21,22,-1,4,22,23,-1,23,22,24,-1,25,26,27,-1,27,26,28,-1,16,29,14,-1,14,29,30,-1,14,30,22,-1,22,30,31,-1,22,31,24,-1,32,33,34,-1,34,33,35,-1,34,35,36,-1,36,35,37,-1,36,37,38,-1,38,37,26,-1,38,26,39,-1,39,26,25,-1,26,40,28,-1,28,40,41,-1,28,41,11,-1,11,41,42,-1,11,42,12,-1,17,43,16,-1,16,43,44,-1,16,44,34,-1,34,44,45,-1,34,45,32,-1,1,46,2,-1,2,46,47,-1,2,47,48,-1,48,47,49,-1,48,49,50,-1,7,6,51,-1,51,6,52,-1,51,52,53,-1,50,54,48,-1,48,54,55,-1,48,55,56,-1,56,55,57,-1,56,57,58,-1,58,57,51,-1,58,51,59,-1,59,51,53,-1,60,61,4,-1,4,61,6,-1,62,63,48,-1,48,63,2,-1,28,11,64,-1,64,11,65,-1,16,34,66,-1,66,34,67,-1,61,60,64,-1,66,60,68,-1,60,66,64,-1,64,66,67,-1,64,67,69,-1,70,71,72,-1,64,65,61,-1,61,65,63,-1,61,63,62,-1,68,73,66,-1,66,73,74,-1,66,74,75,-1,75,74,76,-1,65,77,63,-1,63,77,78,-1,63,78,79,-1,79,78,80,-1,79,80,81,-1,69,67,72,-1,72,67,82,-1,72,82,70,-1,83,84,85,-1,85,84,86,-1,85,86,62,-1,62,86,87,-1,62,87,61,-1,16,66,75,-1,16,75,29,-1,29,75,76,-1,29,76,30,-1,30,76,74,-1,30,74,31,-1,31,74,73,-1,31,73,24,-1,24,73,68,-1,24,68,23,-1,23,68,60,-1,23,60,4,-1,6,61,87,-1,6,87,52,-1,52,87,86,-1,52,86,53,-1,53,86,84,-1,53,84,59,-1,59,84,83,-1,59,83,58,-1,58,83,85,-1,58,85,56,-1,56,85,62,-1,56,62,48,-1,28,64,69,-1,28,69,27,-1,27,69,72,-1,27,72,25,-1,25,72,71,-1,25,71,39,-1,39,71,70,-1,39,70,38,-1,38,70,82,-1,38,82,36,-1,36,82,67,-1,36,67,34,-1,2,63,79,-1,2,79,18,-1,18,79,81,-1,18,81,19,-1,19,81,80,-1,19,80,20,-1,20,80,78,-1,20,78,8,-1,8,78,77,-1,8,77,9,-1,9,77,65,-1,9,65,11,-1,88,89,0,-1,47,46,90,-1,90,46,91,-1,0,89,1,-1,89,92,1,-1,1,92,93,-1,1,93,46,-1,46,93,94,-1,46,94,91,-1,88,0,95,-1,95,0,13,-1,95,13,96,-1,96,13,10,-1,96,10,97,-1,97,10,98,-1,98,10,12,-1,98,12,99,-1,99,12,42,-1,99,42,100,-1,101,49,90,-1,90,49,47,-1,102,103,57,-1,5,7,104,-1,104,7,105,-1,57,103,51,-1,103,106,51,-1,51,106,107,-1,51,107,7,-1,7,107,108,-1,7,108,105,-1,102,57,109,-1,109,57,55,-1,109,55,110,-1,110,55,54,-1,110,54,111,-1,111,54,112,-1,112,54,50,-1,112,50,113,-1,113,50,49,-1,113,49,101,-1,114,3,104,-1,104,3,5,-1,115,116,15,-1,44,43,117,-1,117,43,118,-1,15,116,17,-1,116,119,17,-1,17,119,120,-1,17,120,43,-1,43,120,121,-1,43,121,118,-1,115,15,122,-1,122,15,14,-1,122,14,123,-1,123,14,22,-1,123,22,124,-1,124,22,125,-1,125,22,21,-1,125,21,126,-1,126,21,3,-1,126,3,114,-1,127,45,117,-1,117,45,44,-1,128,129,26,-1,41,40,130,-1,130,40,131,-1,26,129,40,-1,40,129,132,-1,40,132,131,-1,128,26,133,-1,133,26,37,-1,133,37,134,-1,134,37,35,-1,134,35,135,-1,135,35,136,-1,136,35,33,-1,136,33,137,-1,137,33,138,-1,138,33,32,-1,138,32,139,-1,139,32,45,-1,139,45,127,-1,100,42,130,-1,130,42,41,-1,140,141,142,-1,143,144,145,-1,145,144,146,-1,145,146,140,-1,140,146,147,-1,140,147,141,-1,142,148,149,-1,149,148,150,-1,149,151,142,-1,142,151,152,-1,142,152,153,-1,154,155,156,-1,153,157,142,-1,142,157,158,-1,142,158,140,-1,159,160,161,-1,161,160,162,-1,161,162,163,-1,163,162,164,-1,163,164,165,-1,154,156,166,-1,167,168,169,-1,169,168,156,-1,169,156,170,-1,170,156,155,-1,164,171,172,-1,173,174,175,-1,175,174,176,-1,143,145,156,-1,156,145,177,-1,156,177,166,-1,172,178,164,-1,164,178,179,-1,164,179,165,-1,164,180,171,-1,171,180,181,-1,171,181,182,-1,182,181,183,-1,183,184,182,-1,182,184,185,-1,182,185,186,-1,186,185,175,-1,186,175,187,-1,176,188,175,-1,175,188,189,-1,175,189,187,-1,173,190,174,-1,174,190,191,-1,174,191,169,-1,169,191,192,-1,169,192,167,-1,150,193,149,-1,149,193,194,-1,149,194,161,-1,161,194,195,-1,161,195,159,-1,
        ]
    }
}
Shape{
    appearance Appearance {
        material  Material 	{
            diffuseColor 0.35294117647058826 0.0 0.0
            specularColor 0.023529411764705882 0.0 0.0
            ambientIntensity 0.1501
            transparency 0.0
            shininess 0.5
        }
    }
    geometry IndexedFaceSet {
        ccw TRUE
        solid FALSE
        coord DEF co Coordinate {
            point [
                0.4331 -0.1673 0.9843, 0.4331 0.1673 0.9843, -0.4331 -0.1673 0.9843, -0.4331 0.1673 0.9843, 0.5118 -0.1673 0.9055, 0.5118 0.1673 0.9055, 0.5091 0.1673 0.9259, 0.5091 -0.1673 0.9259, 0.5013 0.1673 0.9449, 0.5013 -0.1673 0.9449, 0.4887 0.1673 0.9612, 0.4887 -0.1673 0.9612, 0.4724 0.1673 0.9737, 0.4724 -0.1673 0.9737, 0.4535 0.1673 0.9816, 0.4535 -0.1673 0.9816, 0.4331 0.2461 0.9055, -0.4331 0.2461 0.9055, -0.4331 0.2434 0.9259, 0.4331 0.2434 0.9259, -0.4331 0.2355 0.9449, 0.4331 0.2355 0.9449, -0.4331 0.223 0.9612, 0.4331 0.223 0.9612, -0.4331 0.2067 0.9737, 0.4331 0.2067 0.9737, -0.4331 0.1877 0.9816, 0.4331 0.1877 0.9816, -0.5118 0.1673 0.9055, -0.5118 -0.1673 0.9055, -0.5091 -0.1673 0.9259, -0.5091 0.1673 0.9259, -0.5013 -0.1673 0.9449, -0.5013 0.1673 0.9449, -0.4887 -0.1673 0.9612, -0.4887 0.1673 0.9612, -0.4724 -0.1673 0.9737, -0.4724 0.1673 0.9737, -0.4535 -0.1673 0.9816, -0.4535 0.1673 0.9816, -0.4331 -0.2461 0.9055, 0.4331 -0.2461 0.9055, 0.4331 -0.2434 0.9259, -0.4331 -0.2434 0.9259, 0.4331 -0.2355 0.9449, -0.4331 -0.2355 0.9449, 0.4331 -0.223 0.9612, -0.4331 -0.223 0.9612, 0.4331 -0.2067 0.9737, -0.4331 -0.2067 0.9737, 0.4331 -0.1877 0.9816, -0.4331 -0.1877 0.9816, -0.5065 0.187 0.9259, -0.4672 0.187 0.9737, -0.4507 0.1775 0.9816, -0.4475 0.1817 0.9816, -0.4383 0.187 0.9816, -0.4528 0.1726 0.9816, -0.4711 0.1775 0.9737, -0.4869 0.1817 0.9612, -0.4609 0.1952 0.9737, -0.4433 0.185 0.9816, -0.4528 0.2014 0.9737, -0.4433 0.2054 0.9737, -0.4813 0.1952 0.9612, -0.4724 0.2067 0.9612, -0.4609 0.2155 0.9612, -0.4475 0.2211 0.9612, -0.4989 0.185 0.9449, -0.4921 0.2014 0.9449, -0.4813 0.2155 0.9449, -0.4672 0.2264 0.9449, -0.4507 0.2332 0.9449, -0.4989 0.2054 0.9259, -0.4869 0.2211 0.9259, -0.4711 0.2332 0.9259, -0.4528 0.2408 0.9259, -0.5091 0.1877 0.9055, -0.5013 0.2067 0.9055, -0.4887 0.223 0.9055, -0.4724 0.2355 0.9055, -0.4535 0.2434 0.9055, 0.4528 0.2408 0.9259, 0.4528 0.2014 0.9737, 0.4433 0.185 0.9816, 0.4475 0.1817 0.9816, 0.4528 0.1726 0.9816, 0.4383 0.187 0.9816, 0.4433 0.2054 0.9737, 0.4475 0.2211 0.9612, 0.4609 0.1952 0.9737, 0.4507 0.1775 0.9816, 0.4672 0.187 0.9737, 0.4711 0.1775 0.9737, 0.4609 0.2155 0.9612, 0.4724 0.2067 0.9612, 0.4813 0.1952 0.9612, 0.4869 0.1817 0.9612, 0.4507 0.2332 0.9449, 0.4672 0.2264 0.9449, 0.4813 0.2155 0.9449, 0.4921 0.2014 0.9449, 0.4989 0.185 0.9449, 0.4711 0.2332 0.9259, 0.4869 0.2211 0.9259, 0.4989 0.2054 0.9259, 0.5065 0.187 0.9259, 0.4535 0.2434 0.9055, 0.4724 0.2355 0.9055, 0.4887 0.223 0.9055, 0.5013 0.2067 0.9055, 0.5091 0.1877 0.9055, -0.4528 -0.2408 0.9259, -0.4528 -0.2014 0.9737, -0.4433 -0.185 0.9816, -0.4475 -0.1817 0.9816, -0.4528 -0.1726 0.9816, -0.4383 -0.187 0.9816, -0.4433 -0.2054 0.9737, -0.4475 -0.2211 0.9612, -0.4609 -0.1952 0.9737, -0.4507 -0.1775 0.9816, -0.4672 -0.187 0.9737, -0.4711 -0.1775 0.9737, -0.4609 -0.2155 0.9612, -0.4724 -0.2067 0.9612, -0.4813 -0.1952 0.9612, -0.4869 -0.1817 0.9612, -0.4507 -0.2332 0.9449, -0.4672 -0.2264 0.9449, -0.4813 -0.2155 0.9449, -0.4921 -0.2014 0.9449, -0.4989 -0.185 0.9449, -0.4711 -0.2332 0.9259, -0.4869 -0.2211 0.9259, -0.4989 -0.2054 0.9259, -0.5065 -0.187 0.9259, -0.4535 -0.2434 0.9055, -0.4724 -0.2355 0.9055, -0.4887 -0.223 0.9055, -0.5013 -0.2067 0.9055, -0.5091 -0.1877 0.9055, 0.5065 -0.187 0.9259, 0.4672 -0.187 0.9737, 0.4507 -0.1775 0.9816, 0.4475 -0.1817 0.9816, 0.4383 -0.187 0.9816, 0.4528 -0.1726 0.9816, 0.4711 -0.1775 0.9737, 0.4869 -0.1817 0.9612, 0.4609 -0.1952 0.9737, 0.4433 -0.185 0.9816, 0.4528 -0.2014 0.9737, 0.4433 -0.2054 0.9737, 0.4813 -0.1952 0.9612, 0.4724 -0.2067 0.9612, 0.4609 -0.2155 0.9612, 0.4475 -0.2211 0.9612, 0.4989 -0.185 0.9449, 0.4921 -0.2014 0.9449, 0.4813 -0.2155 0.9449, 0.4672 -0.2264 0.9449, 0.4507 -0.2332 0.9449, 0.4989 -0.2054 0.9259, 0.4869 -0.2211 0.9259, 0.4711 -0.2332 0.9259, 0.4528 -0.2408 0.9259, 0.5091 -0.1877 0.9055, 0.5013 -0.2067 0.9055, 0.4887 -0.223 0.9055, 0.4724 -0.2355 0.9055, 0.4535 -0.2434 0.9055, 0.5118 0.1673 0.7283, 0.5091 0.1877 0.7283, 0.5013 0.2067 0.7283, 0.4887 0.223 0.7283, 0.4724 0.2355 0.7283, 0.4535 0.2434 0.7283, 0.4331 0.2461 0.7283, -0.4331 0.2461 0.7283, -0.4535 0.2434 0.7283, -0.4724 0.2355 0.7283, -0.4887 0.223 0.7283, -0.5013 0.2067 0.7283, -0.5091 0.1877 0.7283, -0.5118 0.1673 0.7283, -0.5118 -0.1673 0.7283, -0.5091 -0.1877 0.7283, -0.5013 -0.2067 0.7283, -0.4887 -0.223 0.7283, -0.4724 -0.2355 0.7283, -0.4535 -0.2434 0.7283, -0.4331 -0.2461 0.7283, 0.4331 -0.2461 0.7283, 0.4535 -0.2434 0.7283, 0.4724 -0.2355 0.7283, 0.4887 -0.223 0.7283, 0.5013 -0.2067 0.7283, 0.5091 -0.1877 0.7283, 0.5118 -0.1673 0.7283
            ]
        }
        coordIndex [
            0,1,2,-1,2,1,3,-1,4,5,6,-1,4,6,7,-1,7,6,8,-1,7,8,9,-1,9,8,10,-1,9,10,11,-1,11,10,12,-1,11,12,13,-1,13,12,14,-1,13,14,15,-1,15,14,1,-1,15,1,0,-1,16,17,18,-1,16,18,19,-1,19,18,20,-1,19,20,21,-1,21,20,22,-1,21,22,23,-1,23,22,24,-1,23,24,25,-1,25,24,26,-1,25,26,27,-1,27,26,3,-1,27,3,1,-1,28,29,30,-1,28,30,31,-1,31,30,32,-1,31,32,33,-1,33,32,34,-1,33,34,35,-1,35,34,36,-1,35,36,37,-1,37,36,38,-1,37,38,39,-1,39,38,2,-1,39,2,3,-1,40,41,42,-1,40,42,43,-1,43,42,44,-1,43,44,45,-1,45,44,46,-1,45,46,47,-1,47,46,48,-1,47,48,49,-1,49,48,50,-1,49,50,51,-1,51,50,0,-1,51,0,2,-1,28,31,52,-1,53,54,55,-1,3,26,56,-1,55,54,3,-1,57,3,54,-1,57,54,58,-1,58,54,53,-1,58,53,59,-1,39,3,57,-1,60,61,62,-1,62,61,56,-1,62,56,63,-1,63,56,26,-1,63,26,24,-1,39,57,37,-1,37,57,58,-1,37,58,35,-1,35,58,59,-1,35,59,33,-1,64,60,65,-1,65,60,62,-1,65,62,66,-1,66,62,63,-1,66,63,67,-1,67,63,24,-1,67,24,22,-1,68,64,69,-1,69,64,65,-1,69,65,70,-1,70,65,66,-1,70,66,71,-1,71,66,67,-1,71,67,72,-1,72,67,22,-1,72,22,20,-1,31,68,52,-1,52,68,69,-1,52,69,73,-1,73,69,70,-1,73,70,74,-1,74,70,71,-1,74,71,75,-1,75,71,72,-1,75,72,76,-1,76,72,20,-1,76,20,18,-1,28,52,77,-1,77,52,73,-1,77,73,78,-1,78,73,74,-1,78,74,79,-1,79,74,75,-1,79,75,80,-1,80,75,76,-1,80,76,81,-1,81,76,18,-1,81,18,17,-1,61,3,56,-1,31,33,68,-1,68,33,59,-1,68,59,64,-1,64,59,53,-1,64,53,60,-1,60,53,55,-1,60,55,61,-1,61,55,3,-1,16,19,82,-1,83,84,85,-1,1,14,86,-1,85,84,1,-1,87,1,84,-1,87,84,88,-1,88,84,83,-1,88,83,89,-1,27,1,87,-1,90,91,92,-1,92,91,86,-1,92,86,93,-1,93,86,14,-1,93,14,12,-1,27,87,25,-1,25,87,88,-1,25,88,23,-1,23,88,89,-1,23,89,21,-1,94,90,95,-1,95,90,92,-1,95,92,96,-1,96,92,93,-1,96,93,97,-1,97,93,12,-1,97,12,10,-1,98,94,99,-1,99,94,95,-1,99,95,100,-1,100,95,96,-1,100,96,101,-1,101,96,97,-1,101,97,102,-1,102,97,10,-1,102,10,8,-1,19,98,82,-1,82,98,99,-1,82,99,103,-1,103,99,100,-1,103,100,104,-1,104,100,101,-1,104,101,105,-1,105,101,102,-1,105,102,106,-1,106,102,8,-1,106,8,6,-1,16,82,107,-1,107,82,103,-1,107,103,108,-1,108,103,104,-1,108,104,109,-1,109,104,105,-1,109,105,110,-1,110,105,106,-1,110,106,111,-1,111,106,6,-1,111,6,5,-1,91,1,86,-1,19,21,98,-1,98,21,89,-1,98,89,94,-1,94,89,83,-1,94,83,90,-1,90,83,85,-1,90,85,91,-1,91,85,1,-1,40,43,112,-1,113,114,115,-1,2,38,116,-1,115,114,2,-1,117,2,114,-1,117,114,118,-1,118,114,113,-1,118,113,119,-1,51,2,117,-1,120,121,122,-1,122,121,116,-1,122,116,123,-1,123,116,38,-1,123,38,36,-1,51,117,49,-1,49,117,118,-1,49,118,47,-1,47,118,119,-1,47,119,45,-1,124,120,125,-1,125,120,122,-1,125,122,126,-1,126,122,123,-1,126,123,127,-1,127,123,36,-1,127,36,34,-1,128,124,129,-1,129,124,125,-1,129,125,130,-1,130,125,126,-1,130,126,131,-1,131,126,127,-1,131,127,132,-1,132,127,34,-1,132,34,32,-1,43,128,112,-1,112,128,129,-1,112,129,133,-1,133,129,130,-1,133,130,134,-1,134,130,131,-1,134,131,135,-1,135,131,132,-1,135,132,136,-1,136,132,32,-1,136,32,30,-1,40,112,137,-1,137,112,133,-1,137,133,138,-1,138,133,134,-1,138,134,139,-1,139,134,135,-1,139,135,140,-1,140,135,136,-1,140,136,141,-1,141,136,30,-1,141,30,29,-1,121,2,116,-1,43,45,128,-1,128,45,119,-1,128,119,124,-1,124,119,113,-1,124,113,120,-1,120,113,115,-1,120,115,121,-1,121,115,2,-1,4,7,142,-1,143,144,145,-1,0,50,146,-1,145,144,0,-1,147,0,144,-1,147,144,148,-1,148,144,143,-1,148,143,149,-1,15,0,147,-1,150,151,152,-1,152,151,146,-1,152,146,153,-1,153,146,50,-1,153,50,48,-1,15,147,13,-1,13,147,148,-1,13,148,11,-1,11,148,149,-1,11,149,9,-1,154,150,155,-1,155,150,152,-1,155,152,156,-1,156,152,153,-1,156,153,157,-1,157,153,48,-1,157,48,46,-1,158,154,159,-1,159,154,155,-1,159,155,160,-1,160,155,156,-1,160,156,161,-1,161,156,157,-1,161,157,162,-1,162,157,46,-1,162,46,44,-1,7,158,142,-1,142,158,159,-1,142,159,163,-1,163,159,160,-1,163,160,164,-1,164,160,161,-1,164,161,165,-1,165,161,162,-1,165,162,166,-1,166,162,44,-1,166,44,42,-1,4,142,167,-1,167,142,163,-1,167,163,168,-1,168,163,164,-1,168,164,169,-1,169,164,165,-1,169,165,170,-1,170,165,166,-1,170,166,171,-1,171,166,42,-1,171,42,41,-1,151,0,146,-1,7,9,158,-1,158,9,149,-1,158,149,154,-1,154,149,143,-1,154,143,150,-1,150,143,145,-1,150,145,151,-1,151,145,0,-1,5,172,173,-1,5,173,111,-1,111,173,174,-1,111,174,110,-1,110,174,175,-1,110,175,109,-1,109,175,176,-1,109,176,108,-1,108,176,177,-1,108,177,107,-1,107,177,178,-1,107,178,16,-1,17,179,180,-1,17,180,81,-1,81,180,181,-1,81,181,80,-1,80,181,182,-1,80,182,79,-1,79,182,183,-1,79,183,78,-1,78,183,184,-1,78,184,77,-1,77,184,185,-1,77,185,28,-1,29,186,187,-1,29,187,141,-1,141,187,188,-1,141,188,140,-1,140,188,189,-1,140,189,139,-1,139,189,190,-1,139,190,138,-1,138,190,191,-1,138,191,137,-1,137,191,192,-1,137,192,40,-1,41,193,194,-1,41,194,171,-1,171,194,195,-1,171,195,170,-1,170,195,196,-1,170,196,169,-1,169,196,197,-1,169,197,168,-1,168,197,198,-1,168,198,167,-1,167,198,199,-1,167,199,4,-1,41,40,193,-1,193,40,192,-1,29,28,186,-1,186,28,185,-1,17,16,179,-1,179,16,178,-1,5,4,172,-1,172,4,199,-1,
        ]
    }
}
Shape{
    appearance Appearance {
        material  Material 	{
            diffuseColor 0.6666666666666666 0.6666666666666666 0.6666666666666666
            specularColor 0.4666666666666667 0.4666666666666667 0.4666666666666667
            ambientIntensity 0.6667
            transparency 0.0
            shininess 0.5
        }
    }
    geometry IndexedFaceSet {
        ccw TRUE
        solid FALSE
        coord DEF co Coordinate {
            point [
                0.6367 0.3248 0.7283, 0.6571 0.3248 0.7257, 0.6561 0.3318 0.7257, 0.6924 0.3248 0.7053, 0.6905 0.3387 0.7053, 0.676 0.3248 0.7178, 0.6745 0.3367 0.7178, 0.6902 0.341 0.7053, 0.6858 0.3517 0.7053, 0.6699 0.3479 0.7178, 0.684 0.356 0.7053, 0.6783 0.3634 0.7053, 0.6625 0.3574 0.7178, 0.6741 0.3689 0.7053, 0.6685 0.3732 0.7053, 0.653 0.3647 0.7178, 0.6611 0.3789 0.7053, 0.6568 0.3806 0.7053, 0.6419 0.3694 0.7178, 0.6299 0.3872 0.7053, 0.6299 0.3709 0.7178, 0.6438 0.3854 0.7053, 0.6461 0.3851 0.7053, 0.6534 0.3384 0.7257, 0.6491 0.344 0.7257, 0.6435 0.3483 0.7257, 0.6369 0.351 0.7257, 0.6299 0.3519 0.7257, 0.6364 0.3266 0.7283, 0.6358 0.3282 0.7283, 0.6347 0.3296 0.7283, 0.6333 0.3307 0.7283, 0.6317 0.3313 0.7283, 0.6299 0.3316 0.7283, -0.6299 0.3316 0.7283, -0.6299 0.3519 0.7257, -0.6299 0.3709 0.7178, -0.6299 0.3872 0.7053, 0.6367 -0.3248 0.7283, 0.6571 -0.3248 0.7257, 0.676 -0.3248 0.7178, 0.6924 -0.3248 0.7053, -0.6369 0.351 0.7257, -0.6438 0.3854 0.7053, -0.6419 0.3694 0.7178, -0.6461 0.3851 0.7053, -0.6568 0.3806 0.7053, -0.653 0.3647 0.7178, -0.6611 0.3789 0.7053, -0.6685 0.3732 0.7053, -0.6625 0.3574 0.7178, -0.6741 0.3689 0.7053, -0.6783 0.3634 0.7053, -0.6699 0.3479 0.7178, -0.684 0.356 0.7053, -0.6858 0.3517 0.7053, -0.6745 0.3367 0.7178, -0.6924 0.3248 0.7053, -0.676 0.3248 0.7178, -0.6905 0.3387 0.7053, -0.6902 0.341 0.7053, -0.6435 0.3483 0.7257, -0.6491 0.344 0.7257, -0.6534 0.3384 0.7257, -0.6561 0.3318 0.7257, -0.6571 0.3248 0.7257, -0.6317 0.3313 0.7283, -0.6333 0.3307 0.7283, -0.6347 0.3296 0.7283, -0.6358 0.3282 0.7283, -0.6364 0.3266 0.7283, -0.6367 0.3248 0.7283, 0.6299 -0.3316 0.7283, 0.6299 -0.3519 0.7257, 0.6369 -0.351 0.7257, 0.6299 -0.3872 0.7053, 0.6438 -0.3854 0.7053, 0.6299 -0.3709 0.7178, 0.6419 -0.3694 0.7178, 0.6461 -0.3851 0.7053, 0.6568 -0.3806 0.7053, 0.653 -0.3647 0.7178, 0.6611 -0.3789 0.7053, 0.6685 -0.3732 0.7053, 0.6625 -0.3574 0.7178, 0.6741 -0.3689 0.7053, 0.6783 -0.3634 0.7053, 0.6699 -0.3479 0.7178, 0.684 -0.356 0.7053, 0.6858 -0.3517 0.7053, 0.6745 -0.3367 0.7178, 0.6905 -0.3387 0.7053, 0.6902 -0.341 0.7053, 0.6435 -0.3483 0.7257, 0.6491 -0.344 0.7257, 0.6534 -0.3384 0.7257, 0.6561 -0.3318 0.7257, 0.6317 -0.3313 0.7283, 0.6333 -0.3307 0.7283, 0.6347 -0.3296 0.7283, 0.6358 -0.3282 0.7283, 0.6364 -0.3266 0.7283, -0.6367 -0.3248 0.7283, -0.6571 -0.3248 0.7257, -0.676 -0.3248 0.7178, -0.6924 -0.3248 0.7053, -0.6299 -0.3316 0.7283, -0.6299 -0.3519 0.7257, -0.6299 -0.3709 0.7178, -0.6299 -0.3872 0.7053, -0.6561 -0.3318 0.7257, -0.6905 -0.3387 0.7053, -0.6745 -0.3367 0.7178, -0.6902 -0.341 0.7053, -0.6858 -0.3517 0.7053, -0.6699 -0.3479 0.7178, -0.684 -0.356 0.7053, -0.6783 -0.3634 0.7053, -0.6625 -0.3574 0.7178, -0.6741 -0.3689 0.7053, -0.6685 -0.3732 0.7053, -0.653 -0.3647 0.7178, -0.6611 -0.3789 0.7053, -0.6568 -0.3806 0.7053, -0.6419 -0.3694 0.7178, -0.6438 -0.3854 0.7053, -0.6461 -0.3851 0.7053, -0.6534 -0.3384 0.7257, -0.6491 -0.344 0.7257, -0.6435 -0.3483 0.7257, -0.6369 -0.351 0.7257, -0.6364 -0.3266 0.7283, -0.6358 -0.3282 0.7283, -0.6347 -0.3296 0.7283, -0.6333 -0.3307 0.7283, -0.6317 -0.3313 0.7283
            ]
        }
        coordIndex [
            0,1,2,-1,3,4,5,-1,5,4,6,-1,5,6,1,-1,4,7,6,-1,6,7,8,-1,6,8,9,-1,8,10,9,-1,9,10,11,-1,9,11,12,-1,11,13,12,-1,12,13,14,-1,12,14,15,-1,14,16,15,-1,15,16,17,-1,15,17,18,-1,19,20,21,-1,21,20,18,-1,21,18,22,-1,22,18,17,-1,1,6,2,-1,2,6,9,-1,2,9,23,-1,23,9,12,-1,23,12,24,-1,24,12,15,-1,24,15,25,-1,25,15,18,-1,25,18,26,-1,26,18,20,-1,26,20,27,-1,0,2,28,-1,28,2,23,-1,28,23,29,-1,29,23,24,-1,29,24,30,-1,30,24,25,-1,30,25,31,-1,31,25,26,-1,31,26,32,-1,32,26,27,-1,32,27,33,-1,34,33,27,-1,34,27,35,-1,35,27,20,-1,35,20,36,-1,36,20,19,-1,36,19,37,-1,0,38,39,-1,0,39,1,-1,1,39,40,-1,1,40,5,-1,5,40,41,-1,5,41,3,-1,34,35,42,-1,37,43,36,-1,36,43,44,-1,36,44,35,-1,43,45,44,-1,44,45,46,-1,44,46,47,-1,46,48,47,-1,47,48,49,-1,47,49,50,-1,49,51,50,-1,50,51,52,-1,50,52,53,-1,52,54,53,-1,53,54,55,-1,53,55,56,-1,57,58,59,-1,59,58,56,-1,59,56,60,-1,60,56,55,-1,35,44,42,-1,42,44,47,-1,42,47,61,-1,61,47,50,-1,61,50,62,-1,62,50,53,-1,62,53,63,-1,63,53,56,-1,63,56,64,-1,64,56,58,-1,64,58,65,-1,34,42,66,-1,66,42,61,-1,66,61,67,-1,67,61,62,-1,67,62,68,-1,68,62,63,-1,68,63,69,-1,69,63,64,-1,69,64,70,-1,70,64,65,-1,70,65,71,-1,72,73,74,-1,75,76,77,-1,77,76,78,-1,77,78,73,-1,76,79,78,-1,78,79,80,-1,78,80,81,-1,80,82,81,-1,81,82,83,-1,81,83,84,-1,83,85,84,-1,84,85,86,-1,84,86,87,-1,86,88,87,-1,87,88,89,-1,87,89,90,-1,41,40,91,-1,91,40,90,-1,91,90,92,-1,92,90,89,-1,73,78,74,-1,74,78,81,-1,74,81,93,-1,93,81,84,-1,93,84,94,-1,94,84,87,-1,94,87,95,-1,95,87,90,-1,95,90,96,-1,96,90,40,-1,96,40,39,-1,72,74,97,-1,97,74,93,-1,97,93,98,-1,98,93,94,-1,98,94,99,-1,99,94,95,-1,99,95,100,-1,100,95,96,-1,100,96,101,-1,101,96,39,-1,101,39,38,-1,102,71,65,-1,102,65,103,-1,103,65,58,-1,103,58,104,-1,104,58,57,-1,104,57,105,-1,72,106,107,-1,72,107,73,-1,73,107,108,-1,73,108,77,-1,77,108,109,-1,77,109,75,-1,102,103,110,-1,105,111,104,-1,104,111,112,-1,104,112,103,-1,111,113,112,-1,112,113,114,-1,112,114,115,-1,114,116,115,-1,115,116,117,-1,115,117,118,-1,117,119,118,-1,118,119,120,-1,118,120,121,-1,120,122,121,-1,121,122,123,-1,121,123,124,-1,109,108,125,-1,125,108,124,-1,125,124,126,-1,126,124,123,-1,103,112,110,-1,110,112,115,-1,110,115,127,-1,127,115,118,-1,127,118,128,-1,128,118,121,-1,128,121,129,-1,129,121,124,-1,129,124,130,-1,130,124,108,-1,130,108,107,-1,102,110,131,-1,131,110,127,-1,131,127,132,-1,132,127,128,-1,132,128,133,-1,133,128,129,-1,133,129,134,-1,134,129,130,-1,134,130,135,-1,135,130,107,-1,135,107,106,-1,
        ]
    }
}